<?xml version="1.0" standalone="no"?>
<!DOCTYPE svg PUBLIC "-//W3C//DTD SVG 20010904//EN" "http://www.w3.org/TR/2001/REC-SVG-20010904/DTD/svg10.dtd">
<svg version="1.0" xmlns="http://www.w3.org/2000/svg" width="300.000000pt" height="94.000000pt"
    viewBox="0 0 300.000000 94.000000" preserveAspectRatio="xMidYMid meet">
    <metadata>
        Created by potrace 1.10, written by Peter Selinger 2001-2011
    </metadata>
    <g transform="translate(0.000000,94.000000) scale(0.050000,-0.050000)" fill="#000000" stroke="none">
        <path d="M392 1479 c-187 -56 -279 -317 -161 -457 142 -168 549 -88 549 107 0
43 -171 44 -195 1 -26 -47 -133 -60 -172 -20 -113 113 69 307 188 199 39 -35
199 -20 199 19 0 122 -225 206 -408 151z" />
        <path d="M3578 1481 c-325 -99 -290 -528 45 -551 225 -15 311 38 348 213 l24
117 -145 0 -145 0 -9 -60 c-8 -53 -3 -60 39 -60 78 0 41 -49 -43 -56 -126 -11
-190 137 -95 223 40 36 173 45 193 13 14 -22 128 -27 178 -8 27 11 28 18 2 67
-49 97 -244 147 -392 102z" />
        <path d="M5400 1478 c-27 -11 -66 -35 -87 -54 -37 -32 -38 -32 -24 11 l14 45
-290 0 c-311 0 -313 -1 -313 -112 0 -43 8 -48 88 -48 l87 0 -27 -145 c-15 -80
-32 -165 -38 -190 -10 -42 -4 -45 88 -45 l99 0 23 115 c13 63 30 147 38 185
17 85 222 126 222 44 0 -60 72 -110 196 -134 74 -15 114 -33 114 -52 0 -40
-118 -48 -156 -9 -40 40 -214 43 -214 4 0 -197 500 -222 568 -30 43 123 -17
188 -208 226 -60 13 -110 31 -110 42 0 27 131 36 157 10 31 -31 193 -27 193 5
0 116 -256 197 -420 132z" />
        <path d="M890 1455 c-4 -14 -30 -135 -56 -270 l-48 -245 96 0 c84 0 99 6 108
45 27 116 90 442 90 467 0 37 -178 39 -190 3z" />
        <path d="M1112 1448 c-36 -95 -16 -128 78 -128 84 0 90 -3 80 -45 -52 -226
-69 -307 -70 -320 0 -8 44 -15 99 -15 l98 0 23 115 c13 63 30 147 38 185 13
67 18 70 113 80 90 9 100 15 105 65 10 87 34 66 103 -93 64 -147 67 -179 28
-317 -8 -30 5 -35 90 -35 l100 0 22 103 c17 80 47 132 137 235 190 218 185
202 61 201 -104 0 -109 -3 -176 -92 l-70 -92 -38 92 -38 93 -385 0 c-333 0
-387 -4 -398 -32z" />
        <path d="M2630 1435 c-16 -71 -90 -463 -90 -480 0 -49 461 -14 480 36 39 102
31 109 -120 109 -135 0 -140 2 -132 45 9 43 46 226 61 300 12 60 -185 50 -199
-10z" />
        <path d="M3160 1473 c0 -4 -22 -118 -50 -253 -27 -135 -50 -253 -50 -263 0 -9
43 -17 95 -17 l96 0 46 225 c25 124 51 245 57 270 10 42 4 45 -92 45 -56 0
-102 -3 -102 -7z" />
        <path d="M4090 1435 c-28 -119 -90 -443 -90 -468 0 -22 23 -28 95 -23 l95 6
17 95 17 95 100 0 100 0 -13 -71 c-7 -40 -18 -85 -24 -100 -9 -23 10 -29 90
-29 90 0 104 6 113 45 28 119 90 443 90 468 0 50 -188 28 -196 -23 -19 -130
-19 -130 -127 -130 -110 0 -109 -3 -65 145 9 30 -3 35 -90 35 -89 0 -103 -6
-112 -45z" />
        <path d="M1480 531 l0 -171 99 0 c173 0 272 78 195 155 -25 24 -26 38 -8 68
44 70 -4 106 -153 113 l-133 6 0 -171z m220 81 c0 -30 -42 -52 -102 -52 -25 0
-38 14 -38 40 0 32 13 40 70 40 46 0 70 -9 70 -28z m-2 -110 c50 -32 9 -82
-67 -82 -62 0 -71 6 -71 50 0 53 76 71 138 32z" />
        <path d="M1904 572 c-85 -181 -93 -212 -56 -212 17 0 40 18 52 40 16 31 42 40
109 40 71 0 91 -8 101 -40 7 -23 30 -40 53 -40 25 0 37 10 31 25 -140 359
-194 393 -290 187z m155 -57 c1 -8 -21 -15 -49 -15 -55 0 -62 21 -27 85 21 41
73 -6 76 -70z" />
        <path d="M2260 530 l0 -170 140 0 c178 0 208 54 35 64 -149 9 -158 83 -10 92
108 7 131 44 27 44 -88 0 -132 17 -132 52 0 21 29 28 110 28 84 0 110 7 110
30 0 24 -29 30 -140 30 l-140 0 0 -170z" />
        <path d="M2600 530 c0 -155 3 -170 39 -170 30 0 40 16 45 75 8 104 56 106 125
6 32 -46 73 -81 94 -81 51 0 48 10 -36 124 l-72 99 67 58 68 57 -51 1 c-32 1
-74 -22 -109 -59 -32 -33 -65 -60 -74 -60 -9 0 -16 27 -16 60 0 47 -9 60 -40
60 -37 0 -40 -13 -40 -170z" />
        <path d="M3000 530 c0 -157 3 -170 40 -170 32 0 40 13 40 70 0 70 0 70 90 70
90 0 90 0 90 -70 0 -57 8 -70 40 -70 37 0 40 13 40 170 0 157 -3 170 -40 170
-31 0 -40 -13 -40 -60 0 -58 -3 -60 -90 -60 -87 0 -90 2 -90 60 0 47 -9 60
-40 60 -37 0 -40 -13 -40 -170z" />
        <path d="M3393 675 c8 -14 40 -60 71 -103 35 -48 56 -103 56 -145 0 -54 8 -67
40 -67 33 0 40 13 40 77 0 54 18 102 60 160 71 98 72 103 21 103 -22 0 -54
-26 -74 -60 -20 -33 -42 -60 -50 -60 -8 0 -34 27 -57 60 -41 57 -140 90 -107
35z" />
        <path d="M3780 570 c0 -192 133 -279 276 -179 56 39 68 309 14 309 -23 0 -30
-25 -30 -106 0 -232 -166 -259 -176 -29 -9 201 -84 205 -84 5z" />
        <path d="M4180 530 c0 -155 3 -170 39 -170 33 0 40 16 45 114 l6 113 90 -112
c132 -166 160 -156 160 55 0 157 -3 170 -40 170 -35 0 -40 -14 -41 -105 l0
-105 -95 105 c-138 155 -164 145 -164 -65z" />
    </g>
</svg>